<svg xmlns="http://www.w3.org/2000/svg" width="113" height="113" fill="#8DB600" stroke="#8DB600" viewBox="0 0 32 32"><g id="SVGRepo_iconCarrier"><defs><style>.cls-1{fill:#f7f8fa}</style></defs><title/><g id="stethoscope"><path d="M24,12a4,4,0,0,0-1,7.86V22a6,6,0,0,1-6,6,6,6,0,0,1-6-6V19h1l1-1V16.41A8,8,0,0,0,18,9V4L17,3H14V5h2V9a6,6,0,0,1-6,6,5.81,5.81,0,0,1-.86-.06A6,6,0,0,1,4,9V5H6V3H3L2,4V9a8.06,8.06,0,0,0,5,7.41V18l1,1H9v3a8,8,0,0,0,16,0V19.86A4,4,0,0,0,24,12Zm0,6a2,2,0,1,1,2-2A2,2,0,0,1,24,18Z"/><circle cx="24" cy="16" r="2" class="cls-1"/></g></g></svg>